<svg xmlns="http://www.w3.org/2000/svg" viewBox="0 0 32 32" fill="none">
  <path d="M15.887 1.574c-.244-.076-.434-.252-.434-.503v-.855c-.263-.234-.494-.468-.659-.702-.126-.234-.176-.469-.176-.703 0-.585.434-1.067 1.229-1.137l.817-.076c.322-.026.586.05.782.2.195.151.35.36.443.626.176.586.659 1.006 1.229 1.006.093 0 .187-.009.281-.018.282-.028.504-.168.714-.435l.109-.125c.244-.286.488-.503.732-.651.243-.148.487-.222.762-.222.679 0 1.229.469 1.371 1.17.093.469.028.938-.176 1.366-.385.798-1.06 1.367-1.949 1.367-.137 0-.269.018-.401.028-.378.028-.755.093-1.133.176-.244.063-.434.252-.434.503v.817c0 .268.176.486.434.556l.817.234c.322.085.586.252.782.503.195.25.35.556.443.917.176.703.028 1.377-.443 1.978-.403.513-.938.782-1.56.782-.468 0-.893-.137-1.222-.385-.328-.248-.554-.576-.679-1-.125-.417-.176-.845-.137-1.272.028-.385.137-.76.328-1.126l.109-.12c.234-.285.469-.503.715-.651.244-.148.487-.222.762-.222.586 0 1.097.355 1.262.938.035.117.063.234.08.352.04.234.137.45.297.624.158.175.352.304.565.372.224.072.45.094.679.066.195-.028.385-.093.559-.2.173-.106.332-.251.468-.435l.065-.085c.252-.351.504-.634.776-.843.27-.209.569-.32.893-.32.71 0 1.302.503 1.423 1.213.116.677-.154 1.37-.741 1.893-.535.477-1.16.743-1.865.768-.351.016-.691-.034-1.016-.147-.326-.114-.625-.291-.893-.525-.267-.234-.475-.513-.625-.848-.149-.334-.224-.69-.224-1.056 0-.546.222-1.048.625-1.492.403-.443.926-.688 1.494-.688.137 0 .269.018.401.028.378.028.755.093 1.133.176.244.063.434.252.434.503v.817c0 .268-.176.486-.434.556l-.817.234c-.322.085-.586.252-.782.503-.195.25-.35.556-.443.917-.176.703-.028 1.377.443 1.978.403.513.938.782 1.56.782.468 0 .893-.137 1.222-.385.328-.248.554-.576.679-1 .125-.417.176-.845.137-1.272-.028-.385-.137-.76-.328-1.126l-.109-.12c-.234-.285-.469-.503-.715-.651-.244-.148-.487-.222-.762-.222-.586 0-1.097.355-1.262.938-.035.117-.063.234-.08.352-.04.234-.137.45-.297.624-.158.175-.352.304-.565.372-.224.072-.45.094-.679.066-.195-.028-.385-.093-.559-.2-.173-.106-.332-.251-.468-.435l-.065-.085c-.252-.351-.504-.634-.776-.843-.27-.209-.569-.32-.893-.32-.71 0-1.302.503-1.423 1.213-.116.677.154 1.37.741 1.893.535.477 1.16.743 1.865.768.351.016.691-.034 1.016-.147.326-.114.625-.291.893-.525.267-.234.475-.513.625-.848.149-.334.224-.69.224-1.056 0-.546-.222-1.048-.625-1.492-.403-.443-.926-.688-1.494-.688-.137 0-.269.018-.401.028-.378.028-.755.093-1.133.176-.244.063-.434.252-.434.503v.854c0 .251.19.427.434.503l1.945.586c.372.111.679.334.918.653.239.319.401.703.468 1.143.114.684-.028 1.377-.435 1.986-.407.608-.961.947-1.621.985-.344.018-.678-.032-1-.145-.322-.113-.614-.285-.874-.512-.259-.227-.463-.5-.612-.815-.149-.314-.224-.653-.224-.992 0-.521.206-1.007.576-1.424.37-.417.855-.663 1.377-.716.133-.016.267-.016.4 0 .334.028.649.137.937.32.288.184.526.44.713.762.022.038.044.077.065.115.206.365.485.657.818.859.333.203.691.285 1.057.247.488-.052.926-.257 1.268-.601.341-.345.527-.787.527-1.271 0-.156-.024-.313-.072-.461-.048-.149-.121-.288-.217-.414-.097-.126-.214-.237-.35-.331-.136-.094-.287-.168-.448-.221-.161-.053-.33-.082-.498-.087-.168-.005-.335.018-.495.069-.32.102-.591.282-.813.535-.222.253-.381.56-.469.914-.088.354-.107.718-.056 1.073.05.355.171.688.362 1.003.19.315.441.578.744.782.302.204.648.333 1.016.385.367.052.742.023 1.103-.085.36-.109.683-.296.954-.554.27-.259.473-.573.607-.934.133-.36.187-.742.16-1.129l-.097-1.483c-.027-.378-.138-.733-.328-1.053-.19-.32-.452-.586-.776-.79-.324-.204-.695-.314-1.096-.324-.401-.01-.792.084-1.154.276-.362.192-.666.473-.901.832l-1.801-1.092c.168-.352.434-.64.776-.843.341-.203.732-.304 1.152-.303.485.001.941.144 1.338.421.397.278.704.66.909 1.131l.048.109z" fill="#339933"/>
</svg>